<mxfile host="app.diagrams.net" modified="2022-10-07T10:32:08.845Z" agent="5.0 (X11; Ubuntu)" etag="8OhKDyLLUXTlfRHZIUZj" version="20.4.0" type="github">
  <diagram id="ZSB4mNi_vOmrNHzq7wvT" name="Page-1">
    <mxGraphModel dx="1422" dy="743" grid="1" gridSize="10" guides="1" tooltips="1" connect="1" arrows="1" fold="1" page="1" pageScale="1" pageWidth="850" pageHeight="1100" math="0" shadow="0">
      <root>
        <mxCell id="0" />
        <mxCell id="1" parent="0" />
        <mxCell id="aAncDE0UAkiCJDwwdwvq-1" value="&lt;div&gt;email sent to&lt;/div&gt;&lt;div&gt;support@openproject.com&lt;br&gt;&lt;/div&gt;" style="rounded=1;whiteSpace=wrap;html=1;" vertex="1" parent="1">
          <mxGeometry x="300" y="20" width="240" height="60" as="geometry" />
        </mxCell>
        <mxCell id="aAncDE0UAkiCJDwwdwvq-2" value="Ticket Closed" style="rounded=1;whiteSpace=wrap;html=1;" vertex="1" parent="1">
          <mxGeometry x="300" y="1020" width="245" height="60" as="geometry" />
        </mxCell>
        <mxCell id="aAncDE0UAkiCJDwwdwvq-4" value="&lt;div&gt;Ticket Solved&lt;/div&gt;&lt;div&gt;Add To Do &quot;tbcl&quot; 30 days&lt;br&gt;&lt;/div&gt;" style="shape=parallelogram;perimeter=parallelogramPerimeter;whiteSpace=wrap;html=1;fixedSize=1;" vertex="1" parent="1">
          <mxGeometry x="300" y="770" width="240" height="60" as="geometry" />
        </mxCell>
        <mxCell id="aAncDE0UAkiCJDwwdwvq-5" value="wait 30 days" style="shape=process;whiteSpace=wrap;html=1;backgroundOutline=1;" vertex="1" parent="1">
          <mxGeometry x="300" y="855" width="240" height="60" as="geometry" />
        </mxCell>
        <mxCell id="aAncDE0UAkiCJDwwdwvq-6" value="Additional Requests?" style="rhombus;whiteSpace=wrap;html=1;" vertex="1" parent="1">
          <mxGeometry x="300" y="930" width="240" height="70" as="geometry" />
        </mxCell>
      </root>
    </mxGraphModel>
  </diagram>
</mxfile>
